<?xml version="1.0" encoding="utf-8"?>
<!-- Generator: Adobe Illustrator 23.0.1, SVG Export Plug-In . SVG Version: 6.00 Build 0)  -->
<svg version="1.1" xmlns="http://www.w3.org/2000/svg" xmlns:xlink="http://www.w3.org/1999/xlink" x="0px" y="0px"
	 viewBox="0 0 1920 1080" style="enable-background:new 0 0 1920 1080;" xml:space="preserve">
<style type="text/css">
	.st0{fill:#4A006F;}
	.st1{fill:#D137FF;stroke:#D137FF;stroke-width:60;stroke-miterlimit:10;}
	.st2{fill:#D137FF;}
	.st3{clip-path:url(#SVGID_2_);fill:#5E0034;}
	.st4{clip-path:url(#SVGID_2_);fill:#C70033;}
	.st5{clip-path:url(#SVGID_2_);fill:#910039;}
	.st6{clip-path:url(#SVGID_2_);fill:#F7B41F;}
	.st7{clip-path:url(#SVGID_2_);fill:#7D0022;}
	.st8{clip-path:url(#SVGID_2_);fill:#FF3233;}
	.st9{opacity:0.61;fill:none;stroke:#FFFFFF;stroke-width:55;stroke-linecap:round;stroke-linejoin:round;stroke-miterlimit:10;}
	.st10{opacity:0.61;fill:none;stroke:#FFFFFF;stroke-width:28;stroke-linecap:round;stroke-linejoin:round;stroke-miterlimit:10;}
</style>
<g id="Background">
	<g>
		<rect class="st0" width="1920" height="1080"/>
	</g>
</g>
<g id="GoodStar">
	<g id="Dirt">
		<path class="st1" d="M968.49,115.37l75.82,279.46c1.06,3.92,4.71,6.57,8.77,6.37l289.21-14.25c8.8-0.43,12.53,11.04,5.15,15.86
			l-242.36,158.46c-3.4,2.22-4.79,6.51-3.35,10.3l102.93,270.65c3.13,8.24-6.63,15.33-13.49,9.8l-225.6-181.53
			c-3.16-2.55-7.67-2.55-10.83,0l-225.6,181.53c-6.87,5.52-16.63-1.57-13.49-9.8l102.93-270.65c1.44-3.79,0.05-8.08-3.35-10.3
			L572.86,402.81c-7.38-4.82-3.65-16.3,5.15-15.86l289.21,14.25c4.06,0.2,7.7-2.45,8.77-6.37l75.82-279.46
			C954.12,106.87,966.18,106.87,968.49,115.37z"/>
		<path class="st2" d="M669,595L669,595c-15.46,0-28-12.54-28-28v-82c0-15.46,12.54-28,28-28l0,0c15.46,0,28,12.54,28,28v82
			C697,582.46,684.46,595,669,595z"/>
		<path class="st2" d="M1002,808L1002,808c-15.46,0-28-12.54-28-28v-82c0-15.46,12.54-28,28-28l0,0c15.46,0,28,12.54,28,28v82
			C1030,795.46,1017.46,808,1002,808z"/>
		<path class="st2" d="M1116.5,877L1116.5,877c-11.32,0-20.5-9.18-20.5-20.5v-97c0-11.32,9.18-20.5,20.5-20.5l0,0
			c11.32,0,20.5,9.18,20.5,20.5v97C1137,867.82,1127.82,877,1116.5,877z"/>
		<path class="st2" d="M1022.5,845L1022.5,845c-11.32,0-20.5-9.18-20.5-20.5v-97c0-11.32,9.18-20.5,20.5-20.5l0,0
			c11.32,0,20.5,9.18,20.5,20.5v97C1043,835.82,1033.82,845,1022.5,845z"/>
		<path class="st2" d="M866.5,962L866.5,962c-11.32,0-20.5-9.18-20.5-20.5v-205c0-11.32,9.18-20.5,20.5-20.5l0,0
			c11.32,0,20.5,9.18,20.5,20.5v205C887,952.82,877.82,962,866.5,962z"/>
		<path class="st2" d="M1297.5,687L1297.5,687c-11.32,0-20.5-9.18-20.5-20.5v-205c0-11.32,9.18-20.5,20.5-20.5l0,0
			c11.32,0,20.5,9.18,20.5,20.5v205C1318,677.82,1308.82,687,1297.5,687z"/>
		<path class="st2" d="M1297.5,721L1297.5,721c-11.32,0-20.5-9.18-20.5-20.5l0,0c0-11.32,9.18-20.5,20.5-20.5l0,0
			c11.32,0,20.5,9.18,20.5,20.5l0,0C1318,711.82,1308.82,721,1297.5,721z"/>
		<path class="st2" d="M1022.5,898L1022.5,898c-11.32,0-20.5-9.18-20.5-20.5l0,0c0-11.32,9.18-20.5,20.5-20.5l0,0
			c11.32,0,20.5,9.18,20.5,20.5l0,0C1043,888.82,1033.82,898,1022.5,898z"/>
		<path class="st2" d="M791.5,934L791.5,934c-11.32,0-20.5-9.18-20.5-20.5l0,0c0-11.32,9.18-20.5,20.5-20.5l0,0
			c11.32,0,20.5,9.18,20.5,20.5l0,0C812,924.82,802.82,934,791.5,934z"/>
		<path class="st2" d="M592.5,540L592.5,540c-11.32,0-20.5-9.18-20.5-20.5v-31c0-11.32,9.18-20.5,20.5-20.5l0,0
			c11.32,0,20.5,9.18,20.5,20.5v31C613,530.82,603.82,540,592.5,540z"/>
		<path class="st2" d="M791.5,882L791.5,882c-11.32,0-20.5-9.18-20.5-20.5v-97c0-11.32,9.18-20.5,20.5-20.5l0,0
			c11.32,0,20.5,9.18,20.5,20.5v97C812,872.82,802.82,882,791.5,882z"/>
		<path class="st2" d="M851,727.5v97c0,3.63-0.95,7.04-2.61,10c-0.92-1.65-2.06-3.17-3.39-4.5c-3.72-3.7-8.84-6-14.5-6
			c-7.69,0-14.39,4.23-17.89,10.5c-1.66-2.96-2.61-6.37-2.61-10v-97c0-11.32,9.18-20.5,20.5-20.5c5.66,0,10.78,2.3,14.5,6
			C848.7,716.72,851,721.84,851,727.5z"/>
		<path class="st2" d="M1096,676.5v149c0,0.67-0.03,1.34-0.08,2c-0.48-6.52-3.32-12.38-7.68-16.74c-4.8-4.8-11.42-7.76-18.74-7.76
			c-13.97,0-25.4,10.79-26.42,24.5c-0.05-0.66-0.08-1.33-0.08-2v-149c0-14.64,11.86-26.5,26.5-26.5c7.32,0,13.94,2.96,18.74,7.76
			C1093.04,662.56,1096,669.18,1096,676.5z"/>
		<path class="st2" d="M1181.5,603h-13c-21.82,0-39.5-17.68-39.5-39.5v0c0-21.82,17.68-39.5,39.5-39.5h13
			c21.82,0,39.5,17.68,39.5,39.5v0C1221,585.32,1203.32,603,1181.5,603z"/>
		<path class="st2" d="M1288,468v52c0,11.61-4.3,22.21-11.4,30.31c-0.98-5.85-3.79-11.09-7.8-15.11c-5.07-5.06-12.07-8.2-19.8-8.2
			c-15.46,0-28,12.54-28,28v5.94c-14.85-7.63-25-23.1-25-40.94v-52c0-25.41,20.59-46,46-46c12.7,0,24.2,5.15,32.53,13.47
			C1282.85,443.8,1288,455.3,1288,468z"/>
	</g>
	<g id="Layer_4">
		<defs>
			<path id="SVGID_1_" d="M967.42,155.67l67.45,248.64c0.95,3.49,4.19,5.84,7.8,5.67l257.32-12.68c7.83-0.39,11.15,9.82,4.59,14.11
				l-215.63,140.99c-3.02,1.98-4.26,5.79-2.98,9.17l91.58,240.8c2.79,7.33-5.9,13.64-12.01,8.72L964.82,649.58
				c-2.81-2.26-6.83-2.26-9.64,0L754.46,811.09c-6.11,4.92-14.79-1.39-12.01-8.72l91.58-240.8c1.28-3.38,0.04-7.19-2.98-9.17
				L615.43,411.41c-6.56-4.29-3.25-14.5,4.59-14.11l257.32,12.68c3.61,0.18,6.85-2.18,7.8-5.67l67.45-248.64
				C954.63,148.1,965.37,148.1,967.42,155.67z"/>
		</defs>
		<clipPath id="SVGID_2_">
			<use xlink:href="#SVGID_1_"  style="overflow:visible;"/>
		</clipPath>
		<polygon class="st3" points="1328,396 1084,556 960,540 		"/>
		<polygon class="st4" points="1188,829 960,646 960,540 		"/>
		<polygon class="st5" points="960,540 732,829 836,556 		"/>
		<polygon class="st4" points="960,540 592,396 884,410 		"/>
		<polygon class="st5" points="960,540 960,128 1036,410 		"/>
		<polygon class="st3" points="960,540 732,829 960,646 		"/>
		<path class="st6" d="M592,396"/>
		<polygon class="st7" points="592,396 960,540 836,556 		"/>
		<polygon class="st8" points="960,128 960,540 884,410 		"/>
		<polygon class="st8" points="960,540 1328,396 1036,410 		"/>
		<polygon class="st7" points="960,540 1084,556 1188,829 		"/>
	</g>
</g>
<g id="Highlights">
	<path class="st9" d="M752.5,406.5c11.41,0.85,27.18,1.94,46,3c49.82,2.81,58.31,1.85,67-2c8.14-3.61,26.98-14.44,39-50"/>
	<path class="st9" d="M801.38,685.43c3.62-10.85,8.54-25.87,14.18-43.86c14.93-47.61,16.09-56.08,14.48-65.45
		c-1.51-8.78-7.38-29.7-38.91-50.07"/>
	<path class="st9" d="M656.03,402.87c8.33,0.34,16.67,0.69,25,1.03"/>
	<path class="st9" d="M1002.32,549.16c6.81,4.81,13.62,9.63,20.43,14.44"/>
	<path class="st10" d="M1298.44,633c-0.47,11.62-0.95,23.24-1.43,34.86"/>
	<path class="st10" d="M1024.44,766c-0.47,11.62-0.95,23.24-1.43,34.86"/>
	<path class="st10" d="M846.44,771c-0.48,11.62-0.95,23.24-1.43,34.86"/>
	<path class="st10" d="M1270,508c3.44,1.84,8.34,4.95,13,10c4.69,5.09,8.59,11.55,12,23c5.98,20.1,5.81,40,5,52"/>
	<path class="st9" d="M1104.03,411.77c8.34-0.26,16.67-0.52,25.01-0.78"/>
	<path class="st9" d="M1196.03,404.77c8.34-0.26,16.67-0.52,25.01-0.78"/>
	<path class="st9" d="M949.72,166.28c-2.12,8.07-4.25,16.13-6.37,24.2"/>
</g>
</svg>
