<?xml version="1.0" encoding="utf-8"?>
<!-- Generator: Adobe Illustrator 23.0.1, SVG Export Plug-In . SVG Version: 6.00 Build 0)  -->
<svg version="1.1" xmlns="http://www.w3.org/2000/svg" xmlns:xlink="http://www.w3.org/1999/xlink" x="0px" y="0px"
	 viewBox="0 0 1920 1080" style="enable-background:new 0 0 1920 1080;" xml:space="preserve">
<style type="text/css">
	.st0{fill:#570079;}
	.st1{fill:#730092;}
	.st2{fill:#4A006F;}
	.st3{opacity:0.61;}
	.st4{opacity:0.46;}
	.st5{opacity:0.54;}
	.st6{fill:#D137FF;stroke:#D137FF;stroke-width:60;stroke-miterlimit:10;}
	.st7{fill:#D137FF;}
	.st8{clip-path:url(#SVGID_2_);fill:#5E0034;}
	.st9{clip-path:url(#SVGID_2_);fill:#C70033;}
	.st10{clip-path:url(#SVGID_2_);fill:#910039;}
	.st11{clip-path:url(#SVGID_2_);fill:#F7B41F;}
	.st12{clip-path:url(#SVGID_2_);fill:#7D0022;}
	.st13{clip-path:url(#SVGID_2_);fill:#FF3233;}
	.st14{fill:#5E0034;}
	.st15{fill:#910039;}
	.st16{opacity:0.61;fill:none;stroke:#FFFFFF;stroke-width:55;stroke-linecap:round;stroke-linejoin:round;stroke-miterlimit:10;}
	.st17{opacity:0.61;fill:none;stroke:#FFFFFF;stroke-width:28;stroke-linecap:round;stroke-linejoin:round;stroke-miterlimit:10;}
</style>
<g id="Background">
	<rect class="st0" width="1920" height="1080"/>
	<g>
		<rect y="761" class="st1" width="1920" height="197"/>
		<path class="st1" d="M65,452L65,452c35.75,0,65,29.25,65,65v261c0,35.75-29.25,65-65,65h0c-35.75,0-65-29.25-65-65l0-261
			C0,481.25,29.25,452,65,452z"/>
		<path class="st1" d="M130,778V592c0-1.51,0.05-3.02,0.16-4.5c1.11,16.1,8.15,30.62,18.93,41.41C160.88,640.69,177.12,648,195,648
			c34.24,0,62.51-26.83,64.84-60.5c0.11,1.48,0.16,2.99,0.16,4.5v186c0,35.75-29.25,65-65,65c-17.88,0-34.12-7.31-45.91-19.09
			C137.31,812.12,130,795.88,130,778z"/>
		<path class="st1" d="M325,466L325,466c35.75,0,65,29.25,65,65v247c0,35.75-29.25,65-65,65h0c-35.75,0-65-29.25-65-65V531
			C260,495.25,289.25,466,325,466z"/>
		<path class="st1" d="M390,778V600c0,17.88,7.31,34.12,19.09,45.91C420.88,657.69,437.12,665,455,665c35.75,0,65-29.25,65-65v178
			c0,35.75-29.25,65-65,65c-17.88,0-34.12-7.31-45.91-19.09C397.31,812.12,390,795.88,390,778z"/>
		<path class="st1" d="M585,553L585,553c35.75,0,65,29.25,65,65v160c0,35.75-29.25,65-65,65h0c-35.75,0-65-29.25-65-65V618
			C520,582.25,549.25,553,585,553z"/>
		<path class="st1" d="M650,739v-55c0,17.88,7.31,34.12,19.09,45.91C680.88,741.69,697.12,749,715,749c35.75,0,65-29.25,65-65v55
			c0,35.75-29.25,65-65,65c-17.88,0-34.12-7.31-45.91-19.09C657.31,773.12,650,756.88,650,739z"/>
		<path class="st1" d="M845,625L845,625c35.75,0,65,29.25,65,65v88c0,35.75-29.25,65-65,65h0c-35.75,0-65-29.25-65-65v-88
			C780,654.25,809.25,625,845,625z"/>
		<path class="st1" d="M910,745v-66c0,17.88,7.31,34.12,19.09,45.91C940.88,736.69,957.12,744,975,744c35.75,0,65-29.25,65-65v66
			c0,35.75-29.25,65-65,65c-17.88,0-34.12-7.31-45.91-19.09C917.31,779.12,910,762.88,910,745z"/>
		<path class="st1" d="M1105,540L1105,540c35.75,0,65,29.25,65,65v173c0,35.75-29.25,65-65,65h0c-35.75,0-65-29.25-65-65V605
			C1040,569.25,1069.25,540,1105,540z"/>
		<path class="st1" d="M1170,778V600c0,17.88,7.31,34.12,19.09,45.91c11.79,11.78,28.03,19.09,45.91,19.09c35.75,0,65-29.25,65-65
			v178c0,35.75-29.25,65-65,65c-17.88,0-34.12-7.31-45.91-19.09C1177.31,812.12,1170,795.88,1170,778z"/>
		<path class="st1" d="M1365,488L1365,488c35.75,0,65,29.25,65,65v225c0,35.75-29.25,65-65,65h0c-35.75,0-65-29.25-65-65V553
			C1300,517.25,1329.25,488,1365,488z"/>
		<path class="st1" d="M1430,778V560c0,17.88,7.31,34.12,19.09,45.91c11.79,11.78,28.03,19.09,45.91,19.09c35.75,0,65-29.25,65-65
			v218c0,35.75-29.25,65-65,65c-17.88,0-34.12-7.31-45.91-19.09C1437.31,812.12,1430,795.88,1430,778z"/>
		<path class="st1" d="M1625,391L1625,391c35.75,0,65,29.25,65,65v288c0,35.75-29.25,65-65,65h0c-35.75,0-65-29.25-65-65V456
			C1560,420.25,1589.25,391,1625,391z"/>
		<path class="st1" d="M1690,778V646c0,17.88,7.31,34.12,19.09,45.91c11.79,11.78,28.03,19.09,45.91,19.09c35.75,0,65-29.25,65-65
			v132c0,35.75-29.25,65-65,65c-17.88,0-34.12-7.31-45.91-19.09C1697.31,812.12,1690,795.88,1690,778z"/>
		<path class="st1" d="M1820,778V630c0-35.75,29.25-65,65-65c12.86,0,24.88,3.78,35,10.29v257.42c-10.12,6.51-22.14,10.29-35,10.29
			c-17.88,0-34.12-7.31-45.91-19.09C1827.31,812.12,1820,795.88,1820,778z"/>
		<g>
			<rect y="891" class="st1" width="1920" height="197"/>
			<path class="st1" d="M65,582L65,582c35.75,0,65,29.25,65,65v261c0,35.75-29.25,65-65,65h0c-35.75,0-65-29.25-65-65l0-261
				C0,611.25,29.25,582,65,582z"/>
			<path class="st1" d="M130,908V722c0-1.51,0.05-3.02,0.16-4.5c1.11,16.1,8.15,30.62,18.93,41.41C160.88,770.69,177.12,778,195,778
				c34.24,0,62.51-26.83,64.84-60.5c0.11,1.48,0.16,2.99,0.16,4.5v186c0,35.75-29.25,65-65,65c-17.88,0-34.12-7.31-45.91-19.09
				C137.31,942.12,130,925.88,130,908z"/>
			<path class="st1" d="M325,596L325,596c35.75,0,65,29.25,65,65v247c0,35.75-29.25,65-65,65h0c-35.75,0-65-29.25-65-65V661
				C260,625.25,289.25,596,325,596z"/>
			<path class="st1" d="M390,908V730c0,17.88,7.31,34.12,19.09,45.91C420.88,787.69,437.12,795,455,795c35.75,0,65-29.25,65-65v178
				c0,35.75-29.25,65-65,65c-17.88,0-34.12-7.31-45.91-19.09C397.31,942.12,390,925.88,390,908z"/>
			<path class="st1" d="M585,683L585,683c35.75,0,65,29.25,65,65v160c0,35.75-29.25,65-65,65h0c-35.75,0-65-29.25-65-65V748
				C520,712.25,549.25,683,585,683z"/>
			<path class="st1" d="M650,869v-55c0,17.88,7.31,34.12,19.09,45.91C680.88,871.69,697.12,879,715,879c35.75,0,65-29.25,65-65v55
				c0,35.75-29.25,65-65,65c-17.88,0-34.12-7.31-45.91-19.09C657.31,903.12,650,886.88,650,869z"/>
			<path class="st1" d="M845,755L845,755c35.75,0,65,29.25,65,65v88c0,35.75-29.25,65-65,65h0c-35.75,0-65-29.25-65-65v-88
				C780,784.25,809.25,755,845,755z"/>
			<path class="st1" d="M910,875v-66c0,17.88,7.31,34.12,19.09,45.91C940.88,866.69,957.12,874,975,874c35.75,0,65-29.25,65-65v66
				c0,35.75-29.25,65-65,65c-17.88,0-34.12-7.31-45.91-19.09C917.31,909.12,910,892.88,910,875z"/>
			<path class="st1" d="M1105,670L1105,670c35.75,0,65,29.25,65,65v173c0,35.75-29.25,65-65,65h0c-35.75,0-65-29.25-65-65V735
				C1040,699.25,1069.25,670,1105,670z"/>
			<path class="st1" d="M1170,908V730c0,17.88,7.31,34.12,19.09,45.91c11.79,11.78,28.03,19.09,45.91,19.09c35.75,0,65-29.25,65-65
				v178c0,35.75-29.25,65-65,65c-17.88,0-34.12-7.31-45.91-19.09C1177.31,942.12,1170,925.88,1170,908z"/>
			<path class="st1" d="M1365,618L1365,618c35.75,0,65,29.25,65,65v225c0,35.75-29.25,65-65,65h0c-35.75,0-65-29.25-65-65V683
				C1300,647.25,1329.25,618,1365,618z"/>
			<path class="st1" d="M1430,908V690c0,17.88,7.31,34.12,19.09,45.91c11.79,11.78,28.03,19.09,45.91,19.09c35.75,0,65-29.25,65-65
				v218c0,35.75-29.25,65-65,65c-17.88,0-34.12-7.31-45.91-19.09C1437.31,942.12,1430,925.88,1430,908z"/>
			<path class="st1" d="M1625,521L1625,521c35.75,0,65,29.25,65,65v288c0,35.75-29.25,65-65,65h0c-35.75,0-65-29.25-65-65V586
				C1560,550.25,1589.25,521,1625,521z"/>
			<path class="st1" d="M1690,908V776c0,17.88,7.31,34.12,19.09,45.91c11.79,11.78,28.03,19.09,45.91,19.09c35.75,0,65-29.25,65-65
				v132c0,35.75-29.25,65-65,65c-17.88,0-34.12-7.31-45.91-19.09C1697.31,942.12,1690,925.88,1690,908z"/>
			<path class="st1" d="M1820,908V760c0-35.75,29.25-65,65-65c12.86,0,24.88,3.78,35,10.29v257.42c-10.12,6.51-22.14,10.29-35,10.29
				c-17.88,0-34.12-7.31-45.91-19.09C1827.31,942.12,1820,925.88,1820,908z"/>
		</g>
		<g>
			<g>
				<rect class="st2" width="1920" height="132"/>
			</g>
			<path class="st2" d="M1855,444L1855,444c-35.75,0-65-29.25-65-65V118c0-35.75,29.25-65,65-65h0c35.75,0,65,29.25,65,65v261
				C1920,414.75,1890.75,444,1855,444z"/>
			<path class="st2" d="M1790,118v186c0,1.51-0.05,3.02-0.16,4.5c-1.11-16.1-8.15-30.62-18.93-41.41
				C1759.12,255.31,1742.88,248,1725,248c-34.24,0-62.51,26.83-64.84,60.5c-0.11-1.48-0.16-2.99-0.16-4.5V118
				c0-35.75,29.25-65,65-65c17.88,0,34.12,7.31,45.91,19.09C1782.69,83.88,1790,100.12,1790,118z"/>
			<path class="st2" d="M1595,430L1595,430c-35.75,0-65-29.25-65-65V118c0-35.75,29.25-65,65-65h0c35.75,0,65,29.25,65,65v247
				C1660,400.75,1630.75,430,1595,430z"/>
			<path class="st2" d="M1530,118v178c0-17.88-7.31-34.12-19.09-45.91C1499.12,238.31,1482.88,231,1465,231c-35.75,0-65,29.25-65,65
				V118c0-35.75,29.25-65,65-65c17.88,0,34.12,7.31,45.91,19.09C1522.69,83.88,1530,100.12,1530,118z"/>
			<path class="st2" d="M1335,343L1335,343c-35.75,0-65-29.25-65-65V118c0-35.75,29.25-65,65-65h0c35.75,0,65,29.25,65,65v160
				C1400,313.75,1370.75,343,1335,343z"/>
			<path class="st2" d="M1270,157v55c0-17.88-7.31-34.12-19.09-45.91C1239.12,154.31,1222.88,147,1205,147c-35.75,0-65,29.25-65,65
				v-55c0-35.75,29.25-65,65-65c17.88,0,34.12,7.31,45.91,19.09C1262.69,122.88,1270,139.12,1270,157z"/>
			<path class="st2" d="M1075,271L1075,271c-35.75,0-65-29.25-65-65v-88c0-35.75,29.25-65,65-65h0c35.75,0,65,29.25,65,65v88
				C1140,241.75,1110.75,271,1075,271z"/>
			<path class="st2" d="M1010,151v66c0-17.88-7.31-34.12-19.09-45.91C979.12,159.31,962.88,152,945,152c-35.75,0-65,29.25-65,65v-66
				c0-35.75,29.25-65,65-65c17.88,0,34.12,7.31,45.91,19.09C1002.69,116.88,1010,133.12,1010,151z"/>
			<path class="st2" d="M815,356L815,356c-35.75,0-65-29.25-65-65V118c0-35.75,29.25-65,65-65h0c35.75,0,65,29.25,65,65v173
				C880,326.75,850.75,356,815,356z"/>
			<path class="st2" d="M750,118v178c0-17.88-7.31-34.12-19.09-45.91C719.12,238.31,702.88,231,685,231c-35.75,0-65,29.25-65,65V118
				c0-35.75,29.25-65,65-65c17.88,0,34.12,7.31,45.91,19.09C742.69,83.88,750,100.12,750,118z"/>
			<path class="st2" d="M555,408L555,408c-35.75,0-65-29.25-65-65V118c0-35.75,29.25-65,65-65h0c35.75,0,65,29.25,65,65v225
				C620,378.75,590.75,408,555,408z"/>
			<path class="st2" d="M490,118v218c0-17.88-7.31-34.12-19.09-45.91C459.12,278.31,442.88,271,425,271c-35.75,0-65,29.25-65,65V118
				c0-35.75,29.25-65,65-65c17.88,0,34.12,7.31,45.91,19.09C482.69,83.88,490,100.12,490,118z"/>
			<path class="st2" d="M295,505L295,505c-35.75,0-65-29.25-65-65V152c0-35.75,29.25-65,65-65h0c35.75,0,65,29.25,65,65v288
				C360,475.75,330.75,505,295,505z"/>
			<path class="st2" d="M230,118v132c0-17.88-7.31-34.12-19.09-45.91C199.12,192.31,182.88,185,165,185c-35.75,0-65,29.25-65,65V118
				c0-35.75,29.25-65,65-65c17.88,0,34.12,7.31,45.91,19.09C222.69,83.88,230,100.12,230,118z"/>
			<path class="st2" d="M100,118v148c0,35.75-29.25,65-65,65c-12.86,0-24.88-3.78-35-10.29V63.29C10.12,56.78,22.14,53,35,53
				c17.88,0,34.12,7.31,45.91,19.09C92.69,83.88,100,100.12,100,118z"/>
		</g>
		<path class="st1" d="M1098,778H829c-6.6,0-12-5.4-12-12v-3c0-6.6,5.4-12,12-12h269c6.6,0,12,5.4,12,12v3
			C1110,772.6,1104.6,778,1098,778z"/>
		<path class="st1" d="M819,805h-64c-6.6,0-12-5.4-12-12v-3c0-6.6,5.4-12,12-12h64c6.6,0,12,5.4,12,12v3
			C831,799.6,825.6,805,819,805z"/>
		<path class="st2" d="M912,145h-64c-6.6,0-12-5.4-12-12v-3c0-6.6,5.4-12,12-12h64c6.6,0,12,5.4,12,12v3
			C924,139.6,918.6,145,912,145z"/>
		<path class="st2" d="M1063,152h-64c-6.6,0-12-5.4-12-12v-3c0-6.6,5.4-12,12-12h64c6.6,0,12,5.4,12,12v3
			C1075,146.6,1069.6,152,1063,152z"/>
		<path class="st2" d="M1151,145h-64c-6.6,0-12-5.4-12-12v-3c0-6.6,5.4-12,12-12h64c6.6,0,12,5.4,12,12v3
			C1163,139.6,1157.6,145,1151,145z"/>
		<path class="st2" d="M1311,152h-64c-6.6,0-12-5.4-12-12v-3c0-6.6,5.4-12,12-12h64c6.6,0,12,5.4,12,12v3
			C1323,146.6,1317.6,152,1311,152z"/>
		<path class="st2" d="M1137,165h-64c-6.6,0-12-5.4-12-12v-3c0-6.6,5.4-12,12-12h64c6.6,0,12,5.4,12,12v3
			C1149,159.6,1143.6,165,1137,165z"/>
		<path class="st2" d="M401,151h-64c-6.6,0-12-5.4-12-12v-3c0-6.6,5.4-12,12-12h64c6.6,0,12,5.4,12,12v3
			C413,145.6,407.6,151,401,151z"/>
		<path class="st2" d="M262,152h-64c-6.6,0-12-5.4-12-12v-3c0-6.6,5.4-12,12-12h64c6.6,0,12,5.4,12,12v3
			C274,146.6,268.6,152,262,152z"/>
		<path class="st1" d="M830,764h-64c-6.6,0-12-5.4-12-12v-3c0-6.6,5.4-12,12-12h64c6.6,0,12,5.4,12,12v3
			C842,758.6,836.6,764,830,764z"/>
		<path class="st1" d="M668,769h-64c-6.6,0-12-5.4-12-12v-3c0-6.6,5.4-12,12-12h64c6.6,0,12,5.4,12,12v3
			C680,763.6,674.6,769,668,769z"/>
		<g class="st3">
			<path class="st0" d="M383,777.5c0,24.34-9.95,46.46-25.99,62.51c-14.04,14.04-32.74,23.41-53.51,25.53v-29.79
				c0-12.24-10.01-22.25-22.25-22.25c-6.12,0-11.68,2.5-15.71,6.54c-4.04,4.03-6.54,9.59-6.54,15.71v22.78
				c-31.13-13.75-53-44.96-53-81.03c0-12.89,2.8-25.16,7.8-36.23c4.45-9.84,10.65-18.73,18.19-26.27
				C248.04,698.95,270.16,689,294.5,689c16.58,0,32.14,4.62,45.43,12.64c6.23,3.75,11.96,8.24,17.07,13.35
				C373.05,731.04,383,753.16,383,777.5z"/>
			<path class="st0" d="M339.93,701.64c-9.61,0.8-18.29,5.07-24.76,11.53c-7.2,7.21-11.67,17.15-11.67,28.08v94.5v29.79v36.71
				c0,21.86,17.89,39.75,39.75,39.75S383,924.11,383,902.25V777.5L339.93,701.64z"/>
			<path class="st0" d="M259,760v187.5c0,14.57-11.92,26.5-26.5,26.5c-14.57,0-26.5-11.93-26.5-26.5v-170l7.8-36.23
				c4.81-4.8,11.42-7.77,18.7-7.77C247.08,733.5,259,745.42,259,760z"/>
		</g>
		<g class="st4">
			<path class="st0" d="M1718,836.5c0,24.34-9.95,46.46-25.99,62.51c-14.05,14.04-32.74,23.41-53.51,25.53v-29.79
				c0-12.24-10.01-22.25-22.25-22.25c-6.12,0-11.68,2.5-15.71,6.54c-4.04,4.03-6.54,9.59-6.54,15.71v22.78
				c-31.14-13.75-53-44.96-53-81.03c0-12.89,2.8-25.16,7.8-36.23c4.45-9.84,10.65-18.73,18.19-26.27
				c16.05-16.04,38.17-25.99,62.51-25.99c16.58,0,32.14,4.62,45.44,12.64c6.22,3.75,11.95,8.24,17.07,13.35
				C1708.05,790.04,1718,812.16,1718,836.5z"/>
			<path class="st0" d="M1674.94,760.64c-9.62,0.8-18.29,5.07-24.76,11.53c-7.21,7.21-11.68,17.15-11.68,28.08v94.5v29.79v36.71
				c0,21.86,17.89,39.75,39.75,39.75s39.75-17.89,39.75-39.75V836.5L1674.94,760.64z"/>
			<path class="st0" d="M1594,819v187.5c0,14.57-11.93,26.5-26.5,26.5s-26.5-11.93-26.5-26.5v-170l7.8-36.23
				c4.81-4.8,11.42-7.77,18.7-7.77C1582.07,792.5,1594,804.42,1594,819z"/>
		</g>
		<g class="st4">
			<path class="st0" d="M1697,95c0,16.23-6.64,30.97-17.33,41.67c-9.36,9.36-21.83,15.61-35.67,17.02v-19.86
				c0-8.16-6.67-14.83-14.83-14.83c-4.08,0-7.79,1.67-10.48,4.36c-2.69,2.69-4.36,6.4-4.36,10.48v15.18
				C1593.58,139.85,1579,119.05,1579,95c0-8.59,1.86-16.77,5.2-24.16c2.97-6.56,7.1-12.48,12.13-17.51
				C1607.03,42.64,1621.77,36,1638,36c11.05,0,21.42,3.08,30.29,8.43c4.15,2.5,7.97,5.5,11.38,8.9C1690.36,64.03,1697,78.77,1697,95
				z"/>
			<path class="st0" d="M1668.29,44.43c-6.41,0.53-12.19,3.38-16.51,7.69c-4.8,4.8-7.78,11.43-7.78,18.72v63v19.86v24.47
				c0,14.58,11.92,26.5,26.5,26.5s26.5-11.92,26.5-26.5V95L1668.29,44.43z"/>
			<path class="st0" d="M1614.33,83.33v125c0,9.72-7.95,17.67-17.67,17.67s-17.67-7.95-17.67-17.67V95l5.2-24.16
				c3.2-3.2,7.61-5.18,12.46-5.18C1606.38,65.67,1614.33,73.62,1614.33,83.33z"/>
		</g>
		<g class="st4">
			<path class="st0" d="M259,82c0,16.23,6.64,30.97,17.33,41.67c9.36,9.36,21.83,15.61,35.67,17.02v-19.86
				c0-8.16,6.67-14.83,14.83-14.83c4.08,0,7.79,1.67,10.48,4.36s4.36,6.4,4.36,10.48v15.18C362.42,126.85,377,106.05,377,82
				c0-8.59-1.86-16.77-5.2-24.16c-2.97-6.56-7.1-12.48-12.13-17.51C348.97,29.64,334.23,23,318,23c-11.05,0-21.42,3.08-30.29,8.43
				c-4.15,2.5-7.97,5.5-11.38,8.9C265.64,51.03,259,65.77,259,82z"/>
			<path class="st0" d="M287.71,31.43c6.41,0.53,12.19,3.38,16.51,7.69c4.8,4.8,7.78,11.43,7.78,18.72v63v19.86v24.47
				c0,14.58-11.92,26.5-26.5,26.5s-26.5-11.92-26.5-26.5V82L287.71,31.43z"/>
			<path class="st0" d="M341.67,70.33v125c0,9.72,7.95,17.67,17.67,17.67c9.72,0,17.67-7.95,17.67-17.67V82l-5.2-24.16
				c-3.2-3.2-7.61-5.18-12.46-5.18C349.62,52.67,341.67,60.62,341.67,70.33z"/>
		</g>
		<g class="st4">
			<path class="st0" d="M798,74c0,16.23-6.64,30.97-17.33,41.67c-9.36,9.36-21.83,15.61-35.67,17.02v-19.86
				c0-8.16-6.67-14.83-14.83-14.83c-4.08,0-7.79,1.67-10.48,4.36s-4.36,6.4-4.36,10.48v15.18C694.58,118.85,680,98.05,680,74
				c0-8.59,1.86-16.77,5.2-24.16c2.97-6.56,7.1-12.48,12.13-17.51C708.03,21.64,722.77,15,739,15c11.05,0,21.42,3.08,30.29,8.43
				c4.15,2.5,7.97,5.5,11.38,8.9C791.36,43.03,798,57.77,798,74z"/>
			<path class="st0" d="M769.29,23.43c-6.41,0.53-12.19,3.38-16.51,7.69c-4.8,4.8-7.78,11.43-7.78,18.72v63v19.86v24.47
				c0,14.58,11.92,26.5,26.5,26.5s26.5-11.92,26.5-26.5V74L769.29,23.43z"/>
			<path class="st0" d="M715.33,62.33v125c0,9.72-7.95,17.67-17.67,17.67S680,197.05,680,187.33V74l5.2-24.16
				c3.2-3.2,7.61-5.18,12.46-5.18C707.38,44.67,715.33,52.62,715.33,62.33z"/>
		</g>
		<g class="st5">
			<path class="st0" d="M1069,805.5c0,24.34,9.95,46.46,25.99,62.51c14.05,14.04,32.74,23.41,53.51,25.53v-29.79
				c0-12.24,10.01-22.25,22.25-22.25c6.12,0,11.68,2.5,15.71,6.54c4.04,4.03,6.54,9.59,6.54,15.71v22.78
				c31.14-13.75,53-44.96,53-81.03c0-12.89-2.8-25.16-7.8-36.23c-4.45-9.84-10.65-18.73-18.19-26.27
				c-16.05-16.04-38.17-25.99-62.51-25.99c-16.58,0-32.14,4.62-45.44,12.64c-6.22,3.75-11.95,8.24-17.07,13.35
				C1078.95,759.04,1069,781.16,1069,805.5z"/>
			<path class="st0" d="M1112.06,729.64c9.62,0.8,18.29,5.07,24.76,11.53c7.21,7.21,11.68,17.15,11.68,28.08v94.5v29.79v36.71
				c0,21.86-17.89,39.75-39.75,39.75S1069,952.11,1069,930.25V805.5L1112.06,729.64z"/>
			<path class="st0" d="M1193,788v187.5c0,14.57,11.93,26.5,26.5,26.5s26.5-11.93,26.5-26.5v-170l-7.8-36.23
				c-4.81-4.8-11.42-7.77-18.7-7.77C1204.93,761.5,1193,773.42,1193,788z"/>
		</g>
	</g>
</g>
<g id="GoodStar">
	<g id="Dirt">
		<path class="st6" d="M968.49,115.37l75.82,279.46c1.06,3.92,4.71,6.57,8.77,6.37l289.21-14.25c8.8-0.43,12.53,11.04,5.15,15.86
			l-242.36,158.46c-3.4,2.22-4.79,6.51-3.35,10.3l102.93,270.65c3.13,8.24-6.63,15.33-13.49,9.8l-225.6-181.53
			c-3.16-2.55-7.67-2.55-10.83,0l-225.6,181.53c-6.87,5.52-16.63-1.57-13.49-9.8l102.93-270.65c1.44-3.79,0.05-8.08-3.35-10.3
			L572.86,402.81c-7.38-4.82-3.65-16.3,5.15-15.86l289.21,14.25c4.06,0.2,7.7-2.45,8.77-6.37l75.82-279.46
			C954.12,106.87,966.18,106.87,968.49,115.37z"/>
		<path class="st7" d="M669,595L669,595c-15.46,0-28-12.54-28-28v-82c0-15.46,12.54-28,28-28l0,0c15.46,0,28,12.54,28,28v82
			C697,582.46,684.46,595,669,595z"/>
		<path class="st7" d="M1002,808L1002,808c-15.46,0-28-12.54-28-28v-82c0-15.46,12.54-28,28-28l0,0c15.46,0,28,12.54,28,28v82
			C1030,795.46,1017.46,808,1002,808z"/>
		<path class="st7" d="M1116.5,877L1116.5,877c-11.32,0-20.5-9.18-20.5-20.5v-97c0-11.32,9.18-20.5,20.5-20.5l0,0
			c11.32,0,20.5,9.18,20.5,20.5v97C1137,867.82,1127.82,877,1116.5,877z"/>
		<path class="st7" d="M1022.5,845L1022.5,845c-11.32,0-20.5-9.18-20.5-20.5v-97c0-11.32,9.18-20.5,20.5-20.5l0,0
			c11.32,0,20.5,9.18,20.5,20.5v97C1043,835.82,1033.82,845,1022.5,845z"/>
		<path class="st7" d="M866.5,962L866.5,962c-11.32,0-20.5-9.18-20.5-20.5v-205c0-11.32,9.18-20.5,20.5-20.5l0,0
			c11.32,0,20.5,9.18,20.5,20.5v205C887,952.82,877.82,962,866.5,962z"/>
		<path class="st7" d="M1297.5,687L1297.5,687c-11.32,0-20.5-9.18-20.5-20.5v-205c0-11.32,9.18-20.5,20.5-20.5l0,0
			c11.32,0,20.5,9.18,20.5,20.5v205C1318,677.82,1308.82,687,1297.5,687z"/>
		<path class="st7" d="M1297.5,721L1297.5,721c-11.32,0-20.5-9.18-20.5-20.5l0,0c0-11.32,9.18-20.5,20.5-20.5l0,0
			c11.32,0,20.5,9.18,20.5,20.5l0,0C1318,711.82,1308.82,721,1297.5,721z"/>
		<path class="st7" d="M1022.5,898L1022.5,898c-11.32,0-20.5-9.18-20.5-20.5l0,0c0-11.32,9.18-20.5,20.5-20.5l0,0
			c11.32,0,20.5,9.18,20.5,20.5l0,0C1043,888.82,1033.82,898,1022.5,898z"/>
		<path class="st7" d="M791.5,934L791.5,934c-11.32,0-20.5-9.18-20.5-20.5l0,0c0-11.32,9.18-20.5,20.5-20.5l0,0
			c11.32,0,20.5,9.18,20.5,20.5l0,0C812,924.82,802.82,934,791.5,934z"/>
		<path class="st7" d="M592.5,540L592.5,540c-11.32,0-20.5-9.18-20.5-20.5v-31c0-11.32,9.18-20.5,20.5-20.5l0,0
			c11.32,0,20.5,9.18,20.5,20.5v31C613,530.82,603.82,540,592.5,540z"/>
		<path class="st7" d="M791.5,882L791.5,882c-11.32,0-20.5-9.18-20.5-20.5v-97c0-11.32,9.18-20.5,20.5-20.5l0,0
			c11.32,0,20.5,9.18,20.5,20.5v97C812,872.82,802.82,882,791.5,882z"/>
		<path class="st7" d="M851,727.5v97c0,3.63-0.95,7.04-2.61,10c-0.92-1.65-2.06-3.17-3.39-4.5c-3.72-3.7-8.84-6-14.5-6
			c-7.69,0-14.39,4.23-17.89,10.5c-1.66-2.96-2.61-6.37-2.61-10v-97c0-11.32,9.18-20.5,20.5-20.5c5.66,0,10.78,2.3,14.5,6
			C848.7,716.72,851,721.84,851,727.5z"/>
		<path class="st7" d="M1096,676.5v149c0,0.67-0.03,1.34-0.08,2c-0.48-6.52-3.32-12.38-7.68-16.74c-4.8-4.8-11.42-7.76-18.74-7.76
			c-13.97,0-25.4,10.79-26.42,24.5c-0.05-0.66-0.08-1.33-0.08-2v-149c0-14.64,11.86-26.5,26.5-26.5c7.32,0,13.94,2.96,18.74,7.76
			C1093.04,662.56,1096,669.18,1096,676.5z"/>
		<path class="st7" d="M1181.5,603h-13c-21.82,0-39.5-17.68-39.5-39.5v0c0-21.82,17.68-39.5,39.5-39.5h13
			c21.82,0,39.5,17.68,39.5,39.5v0C1221,585.32,1203.32,603,1181.5,603z"/>
		<path class="st7" d="M1288,468v52c0,11.61-4.3,22.21-11.4,30.31c-0.98-5.85-3.79-11.09-7.8-15.11c-5.07-5.06-12.07-8.2-19.8-8.2
			c-15.46,0-28,12.54-28,28v5.94c-14.85-7.63-25-23.1-25-40.94v-52c0-25.41,20.59-46,46-46c12.7,0,24.2,5.15,32.53,13.47
			C1282.85,443.8,1288,455.3,1288,468z"/>
	</g>
	<g id="Layer_4">
		<defs>
			<path id="SVGID_1_" d="M967.42,155.67l67.45,248.64c0.95,3.49,4.19,5.84,7.8,5.67l257.32-12.68c7.83-0.39,11.15,9.82,4.59,14.11
				l-215.63,140.99c-3.02,1.98-4.26,5.79-2.98,9.17l91.58,240.8c2.79,7.33-5.9,13.64-12.01,8.72L964.82,649.58
				c-2.81-2.26-6.83-2.26-9.64,0L754.46,811.09c-6.11,4.92-14.79-1.39-12.01-8.72l91.58-240.8c1.28-3.38,0.04-7.19-2.98-9.17
				L615.43,411.41c-6.56-4.29-3.25-14.5,4.59-14.11l257.32,12.68c3.61,0.18,6.85-2.18,7.8-5.67l67.45-248.64
				C954.63,148.1,965.37,148.1,967.42,155.67z"/>
		</defs>
		<clipPath id="SVGID_2_">
			<use xlink:href="#SVGID_1_"  style="overflow:visible;"/>
		</clipPath>
		<polygon class="st8" points="1328,396 1084,556 960,540 		"/>
		<polygon class="st9" points="1188,829 960,646 960,540 		"/>
		<polygon class="st10" points="960,540 732,829 836,556 		"/>
		<polygon class="st9" points="960,540 592,396 884,410 		"/>
		<polygon class="st10" points="960,540 960,128 1036,410 		"/>
		<polygon class="st8" points="960,540 732,829 960,646 		"/>
		<path class="st11" d="M592,396"/>
		<polygon class="st12" points="592,396 960,540 836,556 		"/>
		<polygon class="st13" points="960,128 960,540 884,410 		"/>
		<polygon class="st13" points="960,540 1328,396 1036,410 		"/>
		<polygon class="st12" points="960,540 1084,556 1188,829 		"/>
	</g>
</g>
<g id="Dust">
	<g>
		<path class="st14" d="M1112.5,518L1112.5,518c-9.07,0-16.5-7.42-16.5-16.5v-67c0-9.07,7.43-16.5,16.5-16.5l0,0
			c9.07,0,16.5,7.42,16.5,16.5v67C1129,510.58,1121.57,518,1112.5,518z"/>
	</g>
	<g>
		<path class="st14" d="M1086.5,524L1086.5,524c-9.07,0-16.5-7.42-16.5-16.5v-42c0-9.07,7.43-16.5,16.5-16.5l0,0
			c9.07,0,16.5,7.42,16.5,16.5v42C1103,516.58,1095.57,524,1086.5,524z"/>
	</g>
	<g>
		<path class="st14" d="M1057.5,457L1057.5,457c-9.07,0-16.5-7.42-16.5-16.5v-7c0-9.07,7.43-16.5,16.5-16.5l0,0
			c9.07,0,16.5,7.42,16.5,16.5v7C1074,449.58,1066.57,457,1057.5,457z"/>
	</g>
	<g>
		<path class="st14" d="M1022.5,585L1022.5,585c-9.08,0-16.5-7.42-16.5-16.5v-26c0-9.08,7.42-16.5,16.5-16.5l0,0
			c9.07,0,16.5,7.42,16.5,16.5v26C1039,577.58,1031.57,585,1022.5,585z"/>
	</g>
	<g>
		<path class="st14" d="M1051.5,621L1051.5,621c-9.07,0-16.5-7.42-16.5-16.5v-57c0-9.08,7.43-16.5,16.5-16.5l0,0
			c9.07,0,16.5,7.42,16.5,16.5v57C1068,613.58,1060.57,621,1051.5,621z"/>
	</g>
	<path class="st15" d="M998.5,519L998.5,519c-9.08,0-16.5-7.42-16.5-16.5v-64c0-9.07,7.42-16.5,16.5-16.5l0,0
		c9.08,0,16.5,7.42,16.5,16.5v64C1015,511.58,1007.58,519,998.5,519z"/>
	<path class="st15" d="M1014.5,497L1014.5,497c-9.08,0-16.5-7.42-16.5-16.5v-64c0-9.07,7.42-16.5,16.5-16.5l0,0
		c9.08,0,16.5,7.42,16.5,16.5v64C1031,489.58,1023.58,497,1014.5,497z"/>
	<g>
		<path class="st14" d="M960.5,621L960.5,621c-9.08,0-16.5-7.42-16.5-16.5v-20c0-9.08,7.42-16.5,16.5-16.5l0,0
			c9.08,0,16.5,7.42,16.5,16.5v20C977,613.58,969.58,621,960.5,621z"/>
	</g>
	<g>
		<path class="st14" d="M982.5,644L982.5,644c-9.08,0-16.5-7.42-16.5-16.5v-26c0-9.08,7.42-16.5,16.5-16.5h0
			c9.08,0,16.5,7.42,16.5,16.5v26C999,636.58,991.58,644,982.5,644z"/>
	</g>
	<path class="st15" d="M889.6,567.78L889.6,567.78c-4.54,7.86-14.68,10.58-22.54,6.04l-48.91-28.24
		c-7.86-4.54-10.58-14.68-6.04-22.54v0c4.54-7.86,14.68-10.58,22.54-6.04l48.91,28.24C891.42,549.77,894.14,559.92,889.6,567.78z"/>
	<path class="st15" d="M930.39,567.32L930.39,567.32c-4.54,7.86-14.68,10.58-22.54,6.04l-35.13-20.28
		c-7.86-4.54-10.58-14.68-6.04-22.54v0c4.54-7.86,14.68-10.58,22.54-6.04l35.13,20.28C932.21,549.32,934.93,559.46,930.39,567.32z"
		/>
</g>
<g id="Highlights">
	<path class="st16" d="M752.5,406.5c11.41,0.85,27.18,1.94,46,3c49.82,2.81,58.31,1.85,67-2c8.14-3.61,26.98-14.44,39-50"/>
	<path class="st16" d="M801.38,685.43c3.62-10.85,8.54-25.87,14.18-43.86c14.93-47.61,16.09-56.08,14.48-65.45
		c-1.51-8.78-7.38-29.7-38.91-50.07"/>
	<path class="st16" d="M656.03,402.87c8.33,0.34,16.67,0.69,25,1.03"/>
	<path class="st16" d="M1002.32,549.16c6.81,4.81,13.62,9.63,20.43,14.44"/>
	<path class="st17" d="M1298.44,633c-0.47,11.62-0.95,23.24-1.43,34.86"/>
	<path class="st17" d="M1024.44,766c-0.47,11.62-0.95,23.24-1.43,34.86"/>
	<path class="st17" d="M846.44,771c-0.48,11.62-0.95,23.24-1.43,34.86"/>
	<path class="st17" d="M1270,508c3.44,1.84,8.34,4.95,13,10c4.69,5.09,8.59,11.55,12,23c5.98,20.1,5.81,40,5,52"/>
	<path class="st16" d="M1104.03,411.77c8.34-0.26,16.67-0.52,25.01-0.78"/>
	<path class="st16" d="M1196.03,404.77c8.34-0.26,16.67-0.52,25.01-0.78"/>
	<path class="st16" d="M949.72,166.28c-2.12,8.07-4.25,16.13-6.37,24.2"/>
</g>
</svg>
