<?xml version="1.0" encoding="utf-8"?>
<!-- Generator: Adobe Illustrator 23.0.1, SVG Export Plug-In . SVG Version: 6.00 Build 0)  -->
<svg version="1.1" xmlns="http://www.w3.org/2000/svg" xmlns:xlink="http://www.w3.org/1999/xlink" x="0px" y="0px"
	 viewBox="0 0 1920 1080" style="enable-background:new 0 0 1920 1080;" xml:space="preserve">
<style type="text/css">
	.st0{display:none;}
	.st1{display:inline;}
	.st2{fill:#54B8FF;}
	.st3{display:none;opacity:0.44;}
	.st4{display:inline;fill:#FFFFFF;}
	.st5{opacity:0.44;}
	.st6{fill:#FFFFFF;}
	.st7{display:none;fill:#FFFFFF;}
	.st8{clip-path:url(#SVGID_2_);fill:#F68D21;}
	.st9{clip-path:url(#SVGID_2_);fill:#F68F21;}
	.st10{clip-path:url(#SVGID_2_);fill:#F8F039;}
	.st11{clip-path:url(#SVGID_2_);fill:#F5AE1F;}
	.st12{clip-path:url(#SVGID_2_);fill:#F7B41E;}
	.st13{clip-path:url(#SVGID_2_);fill:#F7B41F;}
	.st14{clip-path:url(#SVGID_2_);fill:#F7DF1A;}
	.st15{clip-path:url(#SVGID_2_);fill:#F9DF5C;}
	.st16{clip-path:url(#SVGID_2_);fill:#F7AC1F;}
</style>
<g id="Background" class="st0">
	<g class="st1">
		<rect class="st2" width="1920" height="1080"/>
	</g>
</g>
<g id="Spark">
	<g class="st3">
		<circle class="st4" cx="960" cy="511" r="412"/>
	</g>
	<g class="st5">
		<circle class="st6" cx="960" cy="511" r="287"/>
	</g>
	<g class="st3">
		<path class="st4" d="M960,12c-275.59,0-499,223.41-499,499s223.41,499,499,499s499-223.41,499-499S1235.59,12,960,12z M960,931
			c-231.96,0-420-188.04-420-420S728.04,91,960,91s420,188.04,420,420S1191.96,931,960,931z"/>
	</g>
	<polygon class="st7" points="1252.74,-334.57 684.26,-334.57 954.73,540 954.73,540 	"/>
	<polygon class="st7" points="1300.63,1561.94 636.37,1561.94 952.41,540 952.41,540 	"/>
	<polygon class="st7" points="2064.66,329.67 2064.66,733.56 960,541.4 960,541.4 	"/>
	<polygon class="st7" points="-167.85,325.43 -167.85,737.8 960,541.6 960,541.6 	"/>
</g>
<g id="GoodStar" class="st0">
	<g id="Layer_4" class="st1">
		<defs>
			<path id="SVGID_1_" d="M967.42,155.67l67.45,248.64c0.95,3.49,4.19,5.84,7.8,5.67l257.32-12.68c7.83-0.39,11.15,9.82,4.59,14.11
				l-215.63,140.99c-3.02,1.98-4.26,5.79-2.98,9.17l91.58,240.8c2.79,7.33-5.9,13.64-12.01,8.72L964.82,649.58
				c-2.81-2.26-6.83-2.26-9.64,0L754.46,811.09c-6.11,4.92-14.79-1.39-12.01-8.72l91.58-240.8c1.28-3.38,0.04-7.19-2.98-9.17
				L615.43,411.41c-6.56-4.29-3.25-14.5,4.59-14.11l257.32,12.68c3.61,0.18,6.85-2.18,7.8-5.67l67.45-248.64
				C954.63,148.1,965.37,148.1,967.42,155.67z"/>
		</defs>
		<clipPath id="SVGID_2_">
			<use xlink:href="#SVGID_1_"  style="overflow:visible;"/>
		</clipPath>
		<polygon class="st8" points="1328,396 1084,556 960,540 		"/>
		<polygon class="st9" points="1188,829 960,646 960,540 		"/>
		<polygon class="st10" points="960,540 732,829 836,556 		"/>
		<polygon class="st10" points="960,540 592,396 884,410 		"/>
		<polygon class="st11" points="960,540 960,128 1036,410 		"/>
		<polygon class="st12" points="960,540 732,829 960,646 		"/>
		<path class="st13" d="M592,396"/>
		<polygon class="st12" points="592,396 960,540 836,556 		"/>
		<polygon class="st14" points="960,128 960,540 884,410 		"/>
		<polygon class="st15" points="960,540 1328,396 1036,410 		"/>
		<polygon class="st16" points="960,540 1084,556 1188,829 		"/>
	</g>
</g>
<g id="Highlights" class="st0">
	<path class="st4" d="M909.24,383.93L909.24,383.93c-6.08-1.73-9.65-8.12-7.92-14.2l25.88-91.12c1.73-6.08,8.12-9.65,14.2-7.92h0
		c6.08,1.73,9.65,8.12,7.92,14.2l-25.88,91.12C921.71,382.09,915.32,385.66,909.24,383.93z"/>
	<path class="st4" d="M811.8,673.1L811.8,673.1c-5.89-2.31-8.81-9.02-6.5-14.91l34.63-88.17c2.31-5.89,9.02-8.81,14.91-6.5l0,0
		c5.89,2.31,8.81,9.02,6.5,14.91l-34.63,88.17C824.4,672.48,817.69,675.41,811.8,673.1z"/>
	<path class="st4" d="M715.51,421.78L715.51,421.78c0.3-6.6,5.89-11.71,12.49-11.42l49.12,2.2c6.6,0.3,11.71,5.89,11.42,12.49v0
		c-0.3,6.6-5.89,11.71-12.49,11.42l-49.12-2.2C720.32,433.97,715.21,428.38,715.51,421.78z"/>
	<path class="st4" d="M802.54,426.88L802.54,426.88c0.3-6.69,5.97-11.87,12.66-11.58l27.75,1.24c6.69,0.3,11.87,5.97,11.58,12.66
		l0,0c-0.3,6.69-5.97,11.87-12.66,11.58l-27.75-1.24C807.43,439.24,802.24,433.57,802.54,426.88z"/>
	<path class="st4" d="M1063.52,426.08L1063.52,426.08c-0.3-6.32,4.63-11.73,10.94-12.03l94.62-4.47c6.32-0.3,11.73,4.63,12.03,10.94
		v0c0.3,6.32-4.63,11.73-10.94,12.03l-94.62,4.47C1069.23,437.33,1063.82,432.4,1063.52,426.08z"/>
</g>
</svg>
